<?xml version="1.0" encoding="UTF-8"?>
<!-- Created with Inkscape (http://www.inkscape.org/) -->
<svg width="158" height="43" version="1.1" viewBox="0 0 41.804 11.377" xmlns="http://www.w3.org/2000/svg">
 <text x="1.1209792" y="9.4125414" fill="#eeeeee" font-family="'Segoe Print'" font-size="10.583px" stroke-width=".26458" style="font-variant-caps:normal;font-variant-east-asian:normal;font-variant-ligatures:normal;font-variant-numeric:normal;line-height:1.25" xml:space="preserve"><tspan x="1.1209792" y="9.4125414" fill="#eeeeee" font-family="'Segoe Print'" font-size="10.583px" stroke-width=".26458" style="font-variant-caps:normal;font-variant-east-asian:normal;font-variant-ligatures:normal;font-variant-numeric:normal">Livros</tspan></text>
 <g fill="#bb5689" stroke-width="1.0583">
  <ellipse cx="10.152" cy="1.7101" rx="1.1906" ry="1.1906"/>
  <path d="m38.39 3.8387c-0.22396 2.4382-0.0701 3.4785 0 4.8286 0.0162 0.3111-0.25076 0.5623-0.56224 0.5623s-0.59941-0.253-0.56224-0.5623c0.19342-1.6095 0.24198-3.2191 0-4.8286-0.0463-0.308 0.25076-0.5622 0.56224-0.5622s0.59073 0.252 0.56224 0.5622z" color="#000000" style="-inkscape-stroke:none"/>
  <path d="m35.413 5.6908c1.6412 0.2219 3.2498 0.2146 4.8286 0 0.30865-0.041999 0.56224 0.2507 0.56224 0.5622 0 0.3115-0.25927 0.6346-0.56224 0.5622-1.4163-0.3382-3.0383-0.3164-4.8286 0-0.30673 0.053999-0.56224-0.2507-0.56224-0.5622 0-0.3115 0.25357-0.6039 0.56224-0.5622z" color="#000000" style="-inkscape-stroke:none"/>
 </g>
</svg>
