<?xml version="1.0" encoding="UTF-8" standalone="no"?>
<!-- Created with Inkscape (http://www.inkscape.org/) -->

<svg
   width="158"
   height="43"
   viewBox="0 0 41.804193 11.37709"
   version="1.1"
   id="svg54129"
   xmlns="http://www.w3.org/2000/svg"
   xmlnsSvg="http://www.w3.org/2000/svg">
  <defs
     id="defs54126" />
  <g
     id="layer1">
    <text
       xmlSpace="preserve"
       style="font-style:normal;font-variant:normal;font-weight:normal;font-stretch:normal;font-size:10.5833px;line-height:1.25;font-family:'Segoe Print';-inkscape-font-specification:'Segoe Print, Normal';font-variant-ligatures:normal;font-variant-caps:normal;font-variant-numeric:normal;font-variant-east-asian:normal;display:inline;fill:#eeeeee;fill-opacity:1;stroke:none;stroke-width:0.264582"
       x="1.1209792"
       y="9.4125414"
       id="text20797-0-3-6"><tspan
         id="tspan20795-5-0-5"
         style="font-style:normal;font-variant:normal;font-weight:normal;font-stretch:normal;font-size:10.5833px;font-family:'Segoe Print';-inkscape-font-specification:'Segoe Print, Normal';font-variant-ligatures:normal;font-variant-caps:normal;font-variant-numeric:normal;font-variant-east-asian:normal;fill:#eeeeee;fill-opacity:1;stroke-width:0.264582"
         x="1.1209792"
         y="9.4125414">Livros</tspan></text>
    <ellipse
       style="display:inline;fill:#bb5689;fill-opacity:1;stroke-width:1.05833;stroke-miterlimit:4;stroke-dasharray:none"
       id="path39198"
       cx="10.151924"
       cy="1.7101485"
       rx="1.190625"
       ry="1.1906248" />
    <path
       style="color:#000000;display:inline;fill:#bb5689;stroke-width:1.05833;-inkscape-stroke:none"
       d="m 38.389547,3.8386887 c -0.22396,2.4381999 -0.0701,3.4784999 0,4.8286002 0.0162,0.3110998 -0.25076,0.5622998 -0.56224,0.5622998 -0.31148,0 -0.59941,-0.2529999 -0.56224,-0.5622998 0.19342,-1.6095001 0.24198,-3.2191003 0,-4.8286002 -0.0463,-0.308 0.25076,-0.5621999 0.56224,-0.5621999 0.31148,0 0.59073,0.2519998 0.56224,0.5621999 z"
       id="rect33798-4-0-5-4-4" />
    <path
       style="color:#000000;display:inline;fill:#bb5689;stroke-width:1.05833;-inkscape-stroke:none"
       d="m 35.412927,5.6907787 c 1.64125,0.2219 3.24975,0.2146 4.82864,0 0.30865,-0.041999 0.56224,0.2506999 0.56224,0.5621999 0,0.3115001 -0.25927,0.6346 -0.56224,0.5622003 -1.41628,-0.3382002 -3.03827,-0.3164002 -4.82864,0 -0.30673,0.053999 -0.56224,-0.2507002 -0.56224,-0.5622003 0,-0.3115 0.25357,-0.6038998 0.56224,-0.5621999 z"
       id="rect33798-7-3-8-2" />
  </g>
</svg>
